# xmcd
#
# Track frame offsets:
# 150
# 8778
# 20096
# 29878
# 41088
# 50491
# 61603
# 68843
# 78835
# 87539
# 96800
# 106500
# 117775
# 132717
# 142339
# 153742
# 163160
# 175246
# 185824
# 196212
# 205550
# 218722
# 229530
# 238781
#
# Disc length: 3305 seconds
#
#
# Revision: 0
# Processed by: cddbd v1.5.2PL0 Copyright (c) Steve Scherf et al.
# Submitted via: Nero 7, 7, 5, 1 
#
DISCID=570ce718
DTITLE=Chet Atkins - CD 3 mister Guitar and The Other
DYEAR=2011
DGENRE=Country
TTITLE0=I Know That You Know
TTITLE1=Rainbow
TTITLE2=Hello Bluebird
TTITLE3=Siesta
TTITLE4=Country Style
TTITLE5=Show Me The Way To Go Home
TTITLE6=I'm Forever Blowing Bubbles
TTITLE7=Backwoods
TTITLE8=Country Gentleman
TTITLE9=Slinkey
TTITLE10=Jessie
TTITLE11=Piano Concerto In C Minor
TTITLE12=Begin The Beguine
TTITLE13=Sabrosa
TTITLE14=Yours
TTITLE15=Siboney
TTITLE16=The Streets Of Laredo
TTITLE17=Delicado
TTITLE18=Peanut Vendor
TTITLE19=El Relicario
TTITLE20=Maria Elena
TTITLE21=Marcheta
TTITLE22=Tzena, Tzena, Tzena
TTITLE23=Poinciana
EXTD=
EXTT0=
EXTT1=
EXTT2=
EXTT3=
EXTT4=
EXTT5=
EXTT6=
EXTT7=
EXTT8=
EXTT9=
EXTT10=
EXTT11=
EXTT12=
EXTT13=
EXTT14=
EXTT15=
EXTT16=
EXTT17=
EXTT18=
EXTT19=
EXTT20=
EXTT21=
EXTT22=
EXTT23=
PLAYORDER=
